<svg width="72" height="72" viewBox="0 0 72 72" fill="none" xmlns="http://www.w3.org/2000/svg">
<rect width="72" height="72" rx="36" fill="#F0F0F0"/>
<path d="M36 16C30.4772 16 26 20.4772 26 26C26 31.5228 30.4772 36 36 36C41.5228 36 46 31.5228 46 26C46 20.4772 41.5228 16 36 16ZM28.5 26C28.5 21.8579 31.8579 18.5 36 18.5C40.1421 18.5 43.5 21.8579 43.5 26C43.5 30.1421 40.1421 33.5 36 33.5C31.8579 33.5 28.5 30.1421 28.5 26ZM24.2499 40C21.9033 40 20 41.9013 20 44.2489L20 45C20 48.7555 21.9417 51.5669 24.9202 53.3802C27.8491 55.1633 31.7861 56 36 56C40.2139 56 44.1509 55.1633 47.0798 53.3802C50.0583 51.5669 52 48.7555 52 45L52 44.2487C52 41.9011 50.0967 40 47.7502 40H24.2499ZM22.5 44.2489C22.5 43.283 23.283 42.5 24.2499 42.5H47.7502C48.7171 42.5 49.5 43.2829 49.5 44.2488L49.5 45C49.5 47.7444 48.1398 49.8081 45.7798 51.2448C43.3703 52.7117 39.9323 53.5 36 53.5C32.0677 53.5 28.6297 52.7117 26.2202 51.2448C23.8602 49.8081 22.5 47.7444 22.5 45L22.5 44.2489Z" fill="#616161"/>
</svg>
